# xmcd CD database file
#
# Track frame offsets:
#	150
#	10778
#	56299
#	95704
#	124571
#	166067
#	205626
#	253449
#
# Disc length: 4100 seconds
#
# Revision: 0
# Processed by: cddbd v1.5.2PL0 Copyright (c) Steve Scherf et al.
# Submitted via: CDex 1.51
#
DISCID=60100208
DTITLE=Havanafax - Havanafax Liva
DYEAR=2002
DGENRE=Jazz
TTITLE0=Piano Play
TTITLE1=Joy
TTITLE2=Dr. Nelson
TTITLE3=Song For Maguie
TTITLE4=Mr. Pete King
TTITLE5=Romance
TTITLE6=Olivia
TTITLE7=Afro Blue
EXTD=YEAR: 2002
EXTT0=
EXTT1=
EXTT2=
EXTT3=
EXTT4=
EXTT5=
EXTT6=
EXTT7=
PLAYORDER=
